<mxfile host="Electron" modified="2023-04-11T09:43:49.840Z" agent="Mozilla/5.0 (Macintosh; Intel Mac OS X 10_15_7) AppleWebKit/537.36 (KHTML, like Gecko) draw.io/21.1.2 Chrome/106.0.5249.199 Electron/21.4.3 Safari/537.36" etag="mwY11ZVTWUG9j01qq07T" version="21.1.2" type="device">
  <diagram id="xjVj0vLJonpUv2DOWNVA" name="Page-1">
    <mxGraphModel dx="5297" dy="3391" grid="0" gridSize="10" guides="1" tooltips="1" connect="1" arrows="1" fold="1" page="0" pageScale="1" pageWidth="827" pageHeight="1169" math="0" shadow="0">
      <root>
        <mxCell id="0" />
        <mxCell id="1" parent="0" />
        <mxCell id="sb421nTafkKdcoKEebiJ-19" value="just using hierarchical FSMs for now" style="rounded=0;whiteSpace=wrap;html=1;fontFamily=Source Sans Pro;fontSource=https%3A%2F%2Ffonts.googleapis.com%2Fcss%3Ffamily%3DSource%2BSans%2BPro;" parent="1" vertex="1">
          <mxGeometry x="-840" y="-223" width="221" height="31" as="geometry" />
        </mxCell>
        <mxCell id="sb421nTafkKdcoKEebiJ-26" style="edgeStyle=orthogonalEdgeStyle;rounded=0;orthogonalLoop=1;jettySize=auto;html=1;fontFamily=Source Sans Pro;fontSource=https%3A%2F%2Ffonts.googleapis.com%2Fcss%3Ffamily%3DSource%2BSans%2BPro;fontSize=12;endArrow=blockThin;endFill=1;" parent="1" source="sb421nTafkKdcoKEebiJ-20" target="sb421nTafkKdcoKEebiJ-25" edge="1">
          <mxGeometry relative="1" as="geometry" />
        </mxCell>
        <mxCell id="sb421nTafkKdcoKEebiJ-27" value="play" style="edgeLabel;html=1;align=center;verticalAlign=middle;resizable=0;points=[];fontSize=12;fontFamily=Source Sans Pro;fontSource=https%3A%2F%2Ffonts.googleapis.com%2Fcss%3Ffamily%3DSource%2BSans%2BPro;" parent="sb421nTafkKdcoKEebiJ-26" vertex="1" connectable="0">
          <mxGeometry x="-0.2143" y="-2" relative="1" as="geometry">
            <mxPoint as="offset" />
          </mxGeometry>
        </mxCell>
        <mxCell id="sb421nTafkKdcoKEebiJ-20" value="start" style="rounded=0;whiteSpace=wrap;html=1;fontFamily=Source Sans Pro;fontSource=https%3A%2F%2Ffonts.googleapis.com%2Fcss%3Ffamily%3DSource%2BSans%2BPro;fillColor=#fff2cc;strokeColor=#d6b656;" parent="1" vertex="1">
          <mxGeometry x="-835" y="343" width="64" height="31" as="geometry" />
        </mxCell>
        <mxCell id="sb421nTafkKdcoKEebiJ-22" style="edgeStyle=orthogonalEdgeStyle;rounded=0;orthogonalLoop=1;jettySize=auto;html=1;fontFamily=Source Sans Pro;fontSource=https%3A%2F%2Ffonts.googleapis.com%2Fcss%3Ffamily%3DSource%2BSans%2BPro;fontSize=12;" parent="1" source="sb421nTafkKdcoKEebiJ-21" target="sb421nTafkKdcoKEebiJ-24" edge="1">
          <mxGeometry relative="1" as="geometry">
            <mxPoint x="-697.4285714285713" y="-129.5" as="targetPoint" />
          </mxGeometry>
        </mxCell>
        <mxCell id="sb421nTafkKdcoKEebiJ-23" value="ACTION&amp;nbsp;&lt;br&gt;(transition)" style="edgeLabel;html=1;align=center;verticalAlign=middle;resizable=0;points=[];fontSize=12;fontFamily=Source Sans Pro;fontSource=https%3A%2F%2Ffonts.googleapis.com%2Fcss%3Ffamily%3DSource%2BSans%2BPro;" parent="sb421nTafkKdcoKEebiJ-22" vertex="1" connectable="0">
          <mxGeometry x="0.0609" relative="1" as="geometry">
            <mxPoint as="offset" />
          </mxGeometry>
        </mxCell>
        <mxCell id="sb421nTafkKdcoKEebiJ-21" value="STATE" style="rounded=0;whiteSpace=wrap;html=1;fontFamily=Source Sans Pro;fontSource=https%3A%2F%2Ffonts.googleapis.com%2Fcss%3Ffamily%3DSource%2BSans%2BPro;" parent="1" vertex="1">
          <mxGeometry x="-860" y="-145" width="64" height="31" as="geometry" />
        </mxCell>
        <mxCell id="sb421nTafkKdcoKEebiJ-24" value="STATE" style="rounded=0;whiteSpace=wrap;html=1;fontFamily=Source Sans Pro;fontSource=https%3A%2F%2Ffonts.googleapis.com%2Fcss%3Ffamily%3DSource%2BSans%2BPro;" parent="1" vertex="1">
          <mxGeometry x="-683" y="-145.5" width="64" height="31" as="geometry" />
        </mxCell>
        <mxCell id="sb421nTafkKdcoKEebiJ-30" style="edgeStyle=orthogonalEdgeStyle;rounded=0;orthogonalLoop=1;jettySize=auto;html=1;entryX=0;entryY=0.5;entryDx=0;entryDy=0;fontFamily=Source Sans Pro;fontSource=https%3A%2F%2Ffonts.googleapis.com%2Fcss%3Ffamily%3DSource%2BSans%2BPro;fontSize=12;curved=1;endArrow=blockThin;endFill=1;" parent="1" source="sb421nTafkKdcoKEebiJ-25" target="sb421nTafkKdcoKEebiJ-28" edge="1">
          <mxGeometry relative="1" as="geometry" />
        </mxCell>
        <mxCell id="sb421nTafkKdcoKEebiJ-33" value="selection" style="edgeLabel;html=1;align=center;verticalAlign=middle;resizable=0;points=[];fontSize=12;fontFamily=Source Sans Pro;fontSource=https%3A%2F%2Ffonts.googleapis.com%2Fcss%3Ffamily%3DSource%2BSans%2BPro;" parent="sb421nTafkKdcoKEebiJ-30" vertex="1" connectable="0">
          <mxGeometry x="0.0199" y="-2" relative="1" as="geometry">
            <mxPoint as="offset" />
          </mxGeometry>
        </mxCell>
        <mxCell id="sb421nTafkKdcoKEebiJ-31" style="edgeStyle=orthogonalEdgeStyle;rounded=0;orthogonalLoop=1;jettySize=auto;html=1;entryX=0;entryY=0.5;entryDx=0;entryDy=0;fontFamily=Source Sans Pro;fontSource=https%3A%2F%2Ffonts.googleapis.com%2Fcss%3Ffamily%3DSource%2BSans%2BPro;fontSize=12;curved=1;endArrow=blockThin;endFill=1;" parent="1" source="sb421nTafkKdcoKEebiJ-25" target="sb421nTafkKdcoKEebiJ-29" edge="1">
          <mxGeometry relative="1" as="geometry" />
        </mxCell>
        <mxCell id="sb421nTafkKdcoKEebiJ-32" value="selection" style="edgeLabel;html=1;align=center;verticalAlign=middle;resizable=0;points=[];fontSize=12;fontFamily=Source Sans Pro;fontSource=https%3A%2F%2Ffonts.googleapis.com%2Fcss%3Ffamily%3DSource%2BSans%2BPro;" parent="sb421nTafkKdcoKEebiJ-31" vertex="1" connectable="0">
          <mxGeometry x="-0.0057" y="1" relative="1" as="geometry">
            <mxPoint as="offset" />
          </mxGeometry>
        </mxCell>
        <mxCell id="sb421nTafkKdcoKEebiJ-25" value="choice selection" style="rounded=0;whiteSpace=wrap;html=1;fontFamily=Source Sans Pro;fontSource=https%3A%2F%2Ffonts.googleapis.com%2Fcss%3Ffamily%3DSource%2BSans%2BPro;" parent="1" vertex="1">
          <mxGeometry x="-681" y="343" width="80" height="31" as="geometry" />
        </mxCell>
        <mxCell id="sb421nTafkKdcoKEebiJ-40" style="edgeStyle=orthogonalEdgeStyle;curved=1;rounded=0;orthogonalLoop=1;jettySize=auto;html=1;fontFamily=Source Sans Pro;fontSource=https%3A%2F%2Ffonts.googleapis.com%2Fcss%3Ffamily%3DSource%2BSans%2BPro;fontSize=12;endArrow=blockThin;endFill=1;" parent="1" source="sb421nTafkKdcoKEebiJ-28" target="sb421nTafkKdcoKEebiJ-39" edge="1">
          <mxGeometry relative="1" as="geometry" />
        </mxCell>
        <mxCell id="sb421nTafkKdcoKEebiJ-41" value="hit generate" style="edgeLabel;html=1;align=center;verticalAlign=middle;resizable=0;points=[];fontSize=12;fontFamily=Source Sans Pro;fontSource=https%3A%2F%2Ffonts.googleapis.com%2Fcss%3Ffamily%3DSource%2BSans%2BPro;" parent="sb421nTafkKdcoKEebiJ-40" vertex="1" connectable="0">
          <mxGeometry x="-0.0538" relative="1" as="geometry">
            <mxPoint as="offset" />
          </mxGeometry>
        </mxCell>
        <mxCell id="sb421nTafkKdcoKEebiJ-51" style="edgeStyle=orthogonalEdgeStyle;curved=1;rounded=0;orthogonalLoop=1;jettySize=auto;html=1;fontFamily=Source Sans Pro;fontSource=https%3A%2F%2Ffonts.googleapis.com%2Fcss%3Ffamily%3DSource%2BSans%2BPro;fontSize=12;entryX=0;entryY=0.5;entryDx=0;entryDy=0;endArrow=blockThin;endFill=1;" parent="1" source="sb421nTafkKdcoKEebiJ-28" target="sb421nTafkKdcoKEebiJ-25" edge="1">
          <mxGeometry relative="1" as="geometry" />
        </mxCell>
        <mxCell id="e4qKSJhobYz9jP92mjIB-2" value="back" style="edgeLabel;html=1;align=center;verticalAlign=middle;resizable=0;points=[];fontFamily=Source Sans Pro;fontSource=https%3A%2F%2Ffonts.googleapis.com%2Fcss%3Ffamily%3DSource%2BSans%2BPro;" parent="sb421nTafkKdcoKEebiJ-51" vertex="1" connectable="0">
          <mxGeometry x="0.0171" y="10" relative="1" as="geometry">
            <mxPoint as="offset" />
          </mxGeometry>
        </mxCell>
        <mxCell id="sb421nTafkKdcoKEebiJ-28" value="choice&lt;br&gt;gen code" style="rounded=0;whiteSpace=wrap;html=1;fontFamily=Source Sans Pro;fontSource=https%3A%2F%2Ffonts.googleapis.com%2Fcss%3Ffamily%3DSource%2BSans%2BPro;" parent="1" vertex="1">
          <mxGeometry x="-494" y="268" width="64" height="31" as="geometry" />
        </mxCell>
        <mxCell id="sb421nTafkKdcoKEebiJ-52" style="edgeStyle=orthogonalEdgeStyle;curved=1;rounded=0;orthogonalLoop=1;jettySize=auto;html=1;fontFamily=Source Sans Pro;fontSource=https%3A%2F%2Ffonts.googleapis.com%2Fcss%3Ffamily%3DSource%2BSans%2BPro;fontSize=12;entryX=0;entryY=0.5;entryDx=0;entryDy=0;endArrow=blockThin;endFill=1;" parent="1" source="sb421nTafkKdcoKEebiJ-29" target="sb421nTafkKdcoKEebiJ-25" edge="1">
          <mxGeometry relative="1" as="geometry" />
        </mxCell>
        <mxCell id="e4qKSJhobYz9jP92mjIB-3" value="back" style="edgeLabel;html=1;align=center;verticalAlign=middle;resizable=0;points=[];fontFamily=Source Sans Pro;fontSource=https%3A%2F%2Ffonts.googleapis.com%2Fcss%3Ffamily%3DSource%2BSans%2BPro;" parent="sb421nTafkKdcoKEebiJ-52" vertex="1" connectable="0">
          <mxGeometry x="0.536" y="-21" relative="1" as="geometry">
            <mxPoint as="offset" />
          </mxGeometry>
        </mxCell>
        <mxCell id="e4qKSJhobYz9jP92mjIB-9" style="edgeStyle=orthogonalEdgeStyle;curved=1;rounded=0;orthogonalLoop=1;jettySize=auto;html=1;fontFamily=Source Sans Pro;fontSource=https%3A%2F%2Ffonts.googleapis.com%2Fcss%3Ffamily%3DSource%2BSans%2BPro;endArrow=blockThin;endFill=1;" parent="1" source="sb421nTafkKdcoKEebiJ-29" target="e4qKSJhobYz9jP92mjIB-8" edge="1">
          <mxGeometry relative="1" as="geometry" />
        </mxCell>
        <mxCell id="e4qKSJhobYz9jP92mjIB-10" value="enter code &amp;amp; go" style="edgeLabel;html=1;align=center;verticalAlign=middle;resizable=0;points=[];fontFamily=Source Sans Pro;fontSource=https%3A%2F%2Ffonts.googleapis.com%2Fcss%3Ffamily%3DSource%2BSans%2BPro;" parent="e4qKSJhobYz9jP92mjIB-9" vertex="1" connectable="0">
          <mxGeometry x="-0.1135" y="-1" relative="1" as="geometry">
            <mxPoint as="offset" />
          </mxGeometry>
        </mxCell>
        <mxCell id="sb421nTafkKdcoKEebiJ-29" value="choice&lt;br&gt;enter code" style="rounded=0;whiteSpace=wrap;html=1;fontFamily=Source Sans Pro;fontSource=https%3A%2F%2Ffonts.googleapis.com%2Fcss%3Ffamily%3DSource%2BSans%2BPro;" parent="1" vertex="1">
          <mxGeometry x="-496" y="431" width="64" height="31" as="geometry" />
        </mxCell>
        <mxCell id="sb421nTafkKdcoKEebiJ-34" value="start" style="rounded=0;whiteSpace=wrap;html=1;fontFamily=Source Sans Pro;fontSource=https%3A%2F%2Ffonts.googleapis.com%2Fcss%3Ffamily%3DSource%2BSans%2BPro;" parent="1" vertex="1">
          <mxGeometry x="-147" y="1067" width="64" height="31" as="geometry" />
        </mxCell>
        <mxCell id="sb421nTafkKdcoKEebiJ-35" value="state" style="text;html=1;strokeColor=none;fillColor=none;align=center;verticalAlign=middle;whiteSpace=wrap;rounded=0;fontFamily=Source Sans Pro;fontSource=https%3A%2F%2Ffonts.googleapis.com%2Fcss%3Ffamily%3DSource%2BSans%2BPro;fontSize=12;" parent="1" vertex="1">
          <mxGeometry x="-141" y="1024" width="60" height="30" as="geometry" />
        </mxCell>
        <mxCell id="sb421nTafkKdcoKEebiJ-36" value="elements &amp;amp; properties" style="text;html=1;strokeColor=none;fillColor=none;align=center;verticalAlign=middle;whiteSpace=wrap;rounded=0;fontFamily=Source Sans Pro;fontSource=https%3A%2F%2Ffonts.googleapis.com%2Fcss%3Ffamily%3DSource%2BSans%2BPro;fontSize=12;" parent="1" vertex="1">
          <mxGeometry x="-27" y="1024" width="145" height="30" as="geometry" />
        </mxCell>
        <mxCell id="sb421nTafkKdcoKEebiJ-37" value="action_in" style="text;html=1;strokeColor=none;fillColor=none;align=center;verticalAlign=middle;whiteSpace=wrap;rounded=0;fontFamily=Source Sans Pro;fontSource=https%3A%2F%2Ffonts.googleapis.com%2Fcss%3Ffamily%3DSource%2BSans%2BPro;fontSize=12;" parent="1" vertex="1">
          <mxGeometry x="-262" y="1024" width="60" height="30" as="geometry" />
        </mxCell>
        <mxCell id="sb421nTafkKdcoKEebiJ-38" value="action_out" style="text;html=1;strokeColor=none;fillColor=none;align=center;verticalAlign=middle;whiteSpace=wrap;rounded=0;fontFamily=Source Sans Pro;fontSource=https%3A%2F%2Ffonts.googleapis.com%2Fcss%3Ffamily%3DSource%2BSans%2BPro;fontSize=12;" parent="1" vertex="1">
          <mxGeometry x="321" y="1024" width="60" height="30" as="geometry" />
        </mxCell>
        <mxCell id="sb421nTafkKdcoKEebiJ-43" value="" style="edgeStyle=orthogonalEdgeStyle;curved=1;rounded=0;orthogonalLoop=1;jettySize=auto;html=1;fontFamily=Source Sans Pro;fontSource=https%3A%2F%2Ffonts.googleapis.com%2Fcss%3Ffamily%3DSource%2BSans%2BPro;fontSize=12;endArrow=blockThin;endFill=1;" parent="1" source="sb421nTafkKdcoKEebiJ-39" target="sb421nTafkKdcoKEebiJ-42" edge="1">
          <mxGeometry relative="1" as="geometry" />
        </mxCell>
        <mxCell id="sb421nTafkKdcoKEebiJ-54" value="resp from server" style="edgeLabel;html=1;align=center;verticalAlign=middle;resizable=0;points=[];fontSize=12;fontFamily=Source Sans Pro;fontSource=https%3A%2F%2Ffonts.googleapis.com%2Fcss%3Ffamily%3DSource%2BSans%2BPro;" parent="sb421nTafkKdcoKEebiJ-43" vertex="1" connectable="0">
          <mxGeometry x="0.1299" y="3" relative="1" as="geometry">
            <mxPoint as="offset" />
          </mxGeometry>
        </mxCell>
        <mxCell id="sb421nTafkKdcoKEebiJ-45" style="edgeStyle=orthogonalEdgeStyle;curved=1;rounded=0;orthogonalLoop=1;jettySize=auto;html=1;entryX=0;entryY=0.5;entryDx=0;entryDy=0;fontFamily=Source Sans Pro;fontSource=https%3A%2F%2Ffonts.googleapis.com%2Fcss%3Ffamily%3DSource%2BSans%2BPro;fontSize=12;endArrow=blockThin;endFill=1;" parent="1" source="sb421nTafkKdcoKEebiJ-39" target="sb421nTafkKdcoKEebiJ-44" edge="1">
          <mxGeometry relative="1" as="geometry" />
        </mxCell>
        <mxCell id="sb421nTafkKdcoKEebiJ-53" value="no response" style="edgeLabel;html=1;align=center;verticalAlign=middle;resizable=0;points=[];fontSize=12;fontFamily=Source Sans Pro;fontSource=https%3A%2F%2Ffonts.googleapis.com%2Fcss%3Ffamily%3DSource%2BSans%2BPro;" parent="sb421nTafkKdcoKEebiJ-45" vertex="1" connectable="0">
          <mxGeometry x="-0.0892" y="1" relative="1" as="geometry">
            <mxPoint as="offset" />
          </mxGeometry>
        </mxCell>
        <mxCell id="sb421nTafkKdcoKEebiJ-39" value="generating code" style="rounded=0;whiteSpace=wrap;html=1;fontFamily=Source Sans Pro;fontSource=https%3A%2F%2Ffonts.googleapis.com%2Fcss%3Ffamily%3DSource%2BSans%2BPro;" parent="1" vertex="1">
          <mxGeometry x="-338" y="268" width="64" height="31" as="geometry" />
        </mxCell>
        <mxCell id="sb421nTafkKdcoKEebiJ-48" style="edgeStyle=orthogonalEdgeStyle;curved=1;rounded=0;orthogonalLoop=1;jettySize=auto;html=1;fontFamily=Source Sans Pro;fontSource=https%3A%2F%2Ffonts.googleapis.com%2Fcss%3Ffamily%3DSource%2BSans%2BPro;fontSize=12;endArrow=blockThin;endFill=1;" parent="1" source="sb421nTafkKdcoKEebiJ-42" target="sb421nTafkKdcoKEebiJ-47" edge="1">
          <mxGeometry relative="1" as="geometry" />
        </mxCell>
        <mxCell id="sb421nTafkKdcoKEebiJ-42" value="code ready" style="whiteSpace=wrap;html=1;fontFamily=Source Sans Pro;rounded=0;fontSource=https%3A%2F%2Ffonts.googleapis.com%2Fcss%3Ffamily%3DSource%2BSans%2BPro;" parent="1" vertex="1">
          <mxGeometry x="-124" y="285" width="67" height="34.5" as="geometry" />
        </mxCell>
        <mxCell id="sb421nTafkKdcoKEebiJ-46" style="edgeStyle=orthogonalEdgeStyle;curved=1;rounded=0;orthogonalLoop=1;jettySize=auto;html=1;fontFamily=Source Sans Pro;fontSource=https%3A%2F%2Ffonts.googleapis.com%2Fcss%3Ffamily%3DSource%2BSans%2BPro;fontSize=12;exitX=1;exitY=0.5;exitDx=0;exitDy=0;entryX=0;entryY=0.5;entryDx=0;entryDy=0;endArrow=blockThin;endFill=1;" parent="1" source="sb421nTafkKdcoKEebiJ-44" target="sb421nTafkKdcoKEebiJ-28" edge="1">
          <mxGeometry relative="1" as="geometry">
            <Array as="points">
              <mxPoint x="-81" y="225" />
              <mxPoint x="-81" y="168" />
              <mxPoint x="-514" y="168" />
              <mxPoint x="-514" y="284" />
            </Array>
          </mxGeometry>
        </mxCell>
        <mxCell id="e4qKSJhobYz9jP92mjIB-4" value="back" style="edgeLabel;html=1;align=center;verticalAlign=middle;resizable=0;points=[];fontFamily=Source Sans Pro;fontSource=https%3A%2F%2Ffonts.googleapis.com%2Fcss%3Ffamily%3DSource%2BSans%2BPro;" parent="sb421nTafkKdcoKEebiJ-46" vertex="1" connectable="0">
          <mxGeometry x="0.136" y="7" relative="1" as="geometry">
            <mxPoint as="offset" />
          </mxGeometry>
        </mxCell>
        <mxCell id="sb421nTafkKdcoKEebiJ-44" value="error" style="whiteSpace=wrap;html=1;fontFamily=Source Sans Pro;rounded=0;fontSource=https%3A%2F%2Ffonts.googleapis.com%2Fcss%3Ffamily%3DSource%2BSans%2BPro;" parent="1" vertex="1">
          <mxGeometry x="-170" y="208" width="69" height="34.5" as="geometry" />
        </mxCell>
        <mxCell id="sb421nTafkKdcoKEebiJ-55" style="edgeStyle=orthogonalEdgeStyle;curved=1;rounded=0;orthogonalLoop=1;jettySize=auto;html=1;fontFamily=Source Sans Pro;fontSource=https%3A%2F%2Ffonts.googleapis.com%2Fcss%3Ffamily%3DSource%2BSans%2BPro;fontSize=12;endArrow=blockThin;endFill=1;" parent="1" source="sb421nTafkKdcoKEebiJ-47" target="sb421nTafkKdcoKEebiJ-49" edge="1">
          <mxGeometry relative="1" as="geometry" />
        </mxCell>
        <mxCell id="e4qKSJhobYz9jP92mjIB-7" value="other player ready" style="edgeLabel;html=1;align=center;verticalAlign=middle;resizable=0;points=[];fontFamily=Source Sans Pro;fontSource=https%3A%2F%2Ffonts.googleapis.com%2Fcss%3Ffamily%3DSource%2BSans%2BPro;" parent="sb421nTafkKdcoKEebiJ-55" vertex="1" connectable="0">
          <mxGeometry x="0.1193" relative="1" as="geometry">
            <mxPoint as="offset" />
          </mxGeometry>
        </mxCell>
        <mxCell id="sb421nTafkKdcoKEebiJ-57" style="edgeStyle=orthogonalEdgeStyle;curved=1;rounded=0;orthogonalLoop=1;jettySize=auto;html=1;entryX=0;entryY=0.5;entryDx=0;entryDy=0;fontFamily=Source Sans Pro;fontSource=https%3A%2F%2Ffonts.googleapis.com%2Fcss%3Ffamily%3DSource%2BSans%2BPro;fontSize=12;endArrow=blockThin;endFill=1;" parent="1" source="sb421nTafkKdcoKEebiJ-47" target="sb421nTafkKdcoKEebiJ-56" edge="1">
          <mxGeometry relative="1" as="geometry" />
        </mxCell>
        <mxCell id="e4qKSJhobYz9jP92mjIB-6" value="timeout" style="edgeLabel;html=1;align=center;verticalAlign=middle;resizable=0;points=[];fontFamily=Source Sans Pro;fontSource=https%3A%2F%2Ffonts.googleapis.com%2Fcss%3Ffamily%3DSource%2BSans%2BPro;" parent="sb421nTafkKdcoKEebiJ-57" vertex="1" connectable="0">
          <mxGeometry x="0.0903" relative="1" as="geometry">
            <mxPoint as="offset" />
          </mxGeometry>
        </mxCell>
        <mxCell id="e4qKSJhobYz9jP92mjIB-21" style="edgeStyle=orthogonalEdgeStyle;curved=1;rounded=0;orthogonalLoop=1;jettySize=auto;html=1;entryX=0;entryY=0.5;entryDx=0;entryDy=0;fontFamily=Source Sans Pro;fontSource=https%3A%2F%2Ffonts.googleapis.com%2Fcss%3Ffamily%3DSource%2BSans%2BPro;strokeColor=#000000;endArrow=blockThin;endFill=1;" parent="1" source="sb421nTafkKdcoKEebiJ-47" target="sb421nTafkKdcoKEebiJ-28" edge="1">
          <mxGeometry relative="1" as="geometry">
            <Array as="points">
              <mxPoint x="-30" y="302" />
              <mxPoint x="-30" y="351" />
              <mxPoint x="-514" y="351" />
              <mxPoint x="-514" y="283" />
            </Array>
          </mxGeometry>
        </mxCell>
        <mxCell id="e4qKSJhobYz9jP92mjIB-22" value="cancel wait" style="edgeLabel;html=1;align=center;verticalAlign=middle;resizable=0;points=[];fontFamily=Source Sans Pro;" parent="e4qKSJhobYz9jP92mjIB-21" vertex="1" connectable="0">
          <mxGeometry x="-0.1085" y="-1" relative="1" as="geometry">
            <mxPoint as="offset" />
          </mxGeometry>
        </mxCell>
        <mxCell id="sb421nTafkKdcoKEebiJ-47" value="wait for other player" style="whiteSpace=wrap;html=1;fontFamily=Source Sans Pro;rounded=0;fontSource=https%3A%2F%2Ffonts.googleapis.com%2Fcss%3Ffamily%3DSource%2BSans%2BPro;" parent="1" vertex="1">
          <mxGeometry x="-4" y="285" width="67" height="34.5" as="geometry" />
        </mxCell>
        <mxCell id="e4qKSJhobYz9jP92mjIB-32" style="edgeStyle=orthogonalEdgeStyle;curved=1;rounded=0;orthogonalLoop=1;jettySize=auto;html=1;fontFamily=Source Sans Pro;fontSource=https%3A%2F%2Ffonts.googleapis.com%2Fcss%3Ffamily%3DSource%2BSans%2BPro;strokeColor=#000000;entryX=0;entryY=0.5;entryDx=0;entryDy=0;endArrow=blockThin;endFill=1;" parent="1" source="sb421nTafkKdcoKEebiJ-49" target="e4qKSJhobYz9jP92mjIB-29" edge="1">
          <mxGeometry relative="1" as="geometry" />
        </mxCell>
        <mxCell id="e4qKSJhobYz9jP92mjIB-34" value="start play" style="edgeLabel;html=1;align=center;verticalAlign=middle;resizable=0;points=[];fontFamily=Source Sans Pro;" parent="e4qKSJhobYz9jP92mjIB-32" vertex="1" connectable="0">
          <mxGeometry x="-0.2274" y="1" relative="1" as="geometry">
            <mxPoint as="offset" />
          </mxGeometry>
        </mxCell>
        <mxCell id="sb421nTafkKdcoKEebiJ-49" value="game can start" style="whiteSpace=wrap;html=1;fontFamily=Source Sans Pro;rounded=0;fontSource=https%3A%2F%2Ffonts.googleapis.com%2Fcss%3Ffamily%3DSource%2BSans%2BPro;" parent="1" vertex="1">
          <mxGeometry x="223" y="304" width="67" height="34.5" as="geometry" />
        </mxCell>
        <mxCell id="e4qKSJhobYz9jP92mjIB-1" style="edgeStyle=orthogonalEdgeStyle;rounded=0;orthogonalLoop=1;jettySize=auto;html=1;curved=1;fontFamily=Source Sans Pro;fontSource=https%3A%2F%2Ffonts.googleapis.com%2Fcss%3Ffamily%3DSource%2BSans%2BPro;entryX=0;entryY=0.5;entryDx=0;entryDy=0;endArrow=blockThin;endFill=1;" parent="1" source="sb421nTafkKdcoKEebiJ-56" target="sb421nTafkKdcoKEebiJ-28" edge="1">
          <mxGeometry relative="1" as="geometry">
            <Array as="points">
              <mxPoint x="237" y="132" />
              <mxPoint x="-530" y="132" />
              <mxPoint x="-530" y="284" />
            </Array>
          </mxGeometry>
        </mxCell>
        <mxCell id="e4qKSJhobYz9jP92mjIB-5" value="back" style="edgeLabel;html=1;align=center;verticalAlign=middle;resizable=0;points=[];fontFamily=Source Sans Pro;fontSource=https%3A%2F%2Ffonts.googleapis.com%2Fcss%3Ffamily%3DSource%2BSans%2BPro;" parent="e4qKSJhobYz9jP92mjIB-1" vertex="1" connectable="0">
          <mxGeometry x="0.2995" y="7" relative="1" as="geometry">
            <mxPoint as="offset" />
          </mxGeometry>
        </mxCell>
        <mxCell id="sb421nTafkKdcoKEebiJ-56" value="error" style="whiteSpace=wrap;html=1;fontFamily=Source Sans Pro;rounded=0;fontSource=https%3A%2F%2Ffonts.googleapis.com%2Fcss%3Ffamily%3DSource%2BSans%2BPro;" parent="1" vertex="1">
          <mxGeometry x="203" y="203" width="67" height="34.5" as="geometry" />
        </mxCell>
        <mxCell id="e4qKSJhobYz9jP92mjIB-15" style="edgeStyle=orthogonalEdgeStyle;curved=1;rounded=0;orthogonalLoop=1;jettySize=auto;html=1;fontFamily=Source Sans Pro;fontSource=https%3A%2F%2Ffonts.googleapis.com%2Fcss%3Ffamily%3DSource%2BSans%2BPro;endArrow=blockThin;endFill=1;" parent="1" source="e4qKSJhobYz9jP92mjIB-8" target="e4qKSJhobYz9jP92mjIB-11" edge="1">
          <mxGeometry relative="1" as="geometry" />
        </mxCell>
        <mxCell id="e4qKSJhobYz9jP92mjIB-16" value="resp from server" style="edgeLabel;html=1;align=center;verticalAlign=middle;resizable=0;points=[];fontFamily=Source Sans Pro;fontSource=https%3A%2F%2Ffonts.googleapis.com%2Fcss%3Ffamily%3DSource%2BSans%2BPro;" parent="e4qKSJhobYz9jP92mjIB-15" vertex="1" connectable="0">
          <mxGeometry x="-0.0356" y="-1" relative="1" as="geometry">
            <mxPoint as="offset" />
          </mxGeometry>
        </mxCell>
        <mxCell id="e4qKSJhobYz9jP92mjIB-17" style="edgeStyle=orthogonalEdgeStyle;curved=1;rounded=0;orthogonalLoop=1;jettySize=auto;html=1;entryX=0;entryY=0.5;entryDx=0;entryDy=0;exitX=1;exitY=0.5;exitDx=0;exitDy=0;fontFamily=Source Sans Pro;fontSource=https%3A%2F%2Ffonts.googleapis.com%2Fcss%3Ffamily%3DSource%2BSans%2BPro;endArrow=blockThin;endFill=1;" parent="1" source="e4qKSJhobYz9jP92mjIB-8" target="e4qKSJhobYz9jP92mjIB-12" edge="1">
          <mxGeometry relative="1" as="geometry">
            <mxPoint x="-283" y="477" as="sourcePoint" />
            <Array as="points">
              <mxPoint x="-203" y="447" />
              <mxPoint x="-203" y="559" />
            </Array>
          </mxGeometry>
        </mxCell>
        <mxCell id="e4qKSJhobYz9jP92mjIB-18" value="error or timeout or other player not waiting" style="edgeLabel;html=1;align=center;verticalAlign=middle;resizable=0;points=[];fontFamily=Source Sans Pro;fontSource=https%3A%2F%2Ffonts.googleapis.com%2Fcss%3Ffamily%3DSource%2BSans%2BPro;" parent="e4qKSJhobYz9jP92mjIB-17" vertex="1" connectable="0">
          <mxGeometry x="-0.0192" y="1" relative="1" as="geometry">
            <mxPoint as="offset" />
          </mxGeometry>
        </mxCell>
        <mxCell id="e4qKSJhobYz9jP92mjIB-8" value="checking code" style="rounded=0;whiteSpace=wrap;html=1;fontFamily=Source Sans Pro;fontSource=https%3A%2F%2Ffonts.googleapis.com%2Fcss%3Ffamily%3DSource%2BSans%2BPro;" parent="1" vertex="1">
          <mxGeometry x="-315" y="431" width="64" height="31" as="geometry" />
        </mxCell>
        <mxCell id="e4qKSJhobYz9jP92mjIB-25" style="edgeStyle=orthogonalEdgeStyle;curved=1;rounded=0;orthogonalLoop=1;jettySize=auto;html=1;fontFamily=Source Sans Pro;fontSource=https%3A%2F%2Ffonts.googleapis.com%2Fcss%3Ffamily%3DSource%2BSans%2BPro;strokeColor=#000000;endArrow=blockThin;endFill=1;" parent="1" source="e4qKSJhobYz9jP92mjIB-11" target="e4qKSJhobYz9jP92mjIB-24" edge="1">
          <mxGeometry relative="1" as="geometry" />
        </mxCell>
        <mxCell id="e4qKSJhobYz9jP92mjIB-11" value="good" style="rounded=0;whiteSpace=wrap;html=1;fontFamily=Source Sans Pro;fontSource=https%3A%2F%2Ffonts.googleapis.com%2Fcss%3Ffamily%3DSource%2BSans%2BPro;" parent="1" vertex="1">
          <mxGeometry x="-117" y="431" width="64" height="31" as="geometry" />
        </mxCell>
        <mxCell id="e4qKSJhobYz9jP92mjIB-13" style="edgeStyle=orthogonalEdgeStyle;curved=1;rounded=0;orthogonalLoop=1;jettySize=auto;html=1;fontFamily=Source Sans Pro;fontSource=https%3A%2F%2Ffonts.googleapis.com%2Fcss%3Ffamily%3DSource%2BSans%2BPro;entryX=0;entryY=0.5;entryDx=0;entryDy=0;endArrow=blockThin;endFill=1;" parent="1" source="e4qKSJhobYz9jP92mjIB-12" target="sb421nTafkKdcoKEebiJ-29" edge="1">
          <mxGeometry relative="1" as="geometry" />
        </mxCell>
        <mxCell id="e4qKSJhobYz9jP92mjIB-14" value="back" style="edgeLabel;html=1;align=center;verticalAlign=middle;resizable=0;points=[];fontFamily=Source Sans Pro;fontSource=https%3A%2F%2Ffonts.googleapis.com%2Fcss%3Ffamily%3DSource%2BSans%2BPro;" parent="e4qKSJhobYz9jP92mjIB-13" vertex="1" connectable="0">
          <mxGeometry x="-0.0356" y="-7" relative="1" as="geometry">
            <mxPoint as="offset" />
          </mxGeometry>
        </mxCell>
        <mxCell id="e4qKSJhobYz9jP92mjIB-12" value="error" style="rounded=0;whiteSpace=wrap;html=1;fontFamily=Source Sans Pro;fontSource=https%3A%2F%2Ffonts.googleapis.com%2Fcss%3Ffamily%3DSource%2BSans%2BPro;" parent="1" vertex="1">
          <mxGeometry x="-113" y="543" width="64" height="31" as="geometry" />
        </mxCell>
        <mxCell id="e4qKSJhobYz9jP92mjIB-30" style="edgeStyle=orthogonalEdgeStyle;curved=1;rounded=0;orthogonalLoop=1;jettySize=auto;html=1;fontFamily=Source Sans Pro;fontSource=https%3A%2F%2Ffonts.googleapis.com%2Fcss%3Ffamily%3DSource%2BSans%2BPro;strokeColor=#000000;entryX=0;entryY=0.5;entryDx=0;entryDy=0;endArrow=blockThin;endFill=1;" parent="1" source="e4qKSJhobYz9jP92mjIB-24" target="e4qKSJhobYz9jP92mjIB-29" edge="1">
          <mxGeometry relative="1" as="geometry">
            <mxPoint x="248" y="444.76744186046517" as="targetPoint" />
          </mxGeometry>
        </mxCell>
        <mxCell id="e4qKSJhobYz9jP92mjIB-31" value="start play" style="edgeLabel;html=1;align=center;verticalAlign=middle;resizable=0;points=[];fontFamily=Source Sans Pro;" parent="e4qKSJhobYz9jP92mjIB-30" vertex="1" connectable="0">
          <mxGeometry x="-0.2614" y="1" relative="1" as="geometry">
            <mxPoint as="offset" />
          </mxGeometry>
        </mxCell>
        <mxCell id="e4qKSJhobYz9jP92mjIB-24" value="game can start" style="whiteSpace=wrap;html=1;fontFamily=Source Sans Pro;rounded=0;fontSource=https%3A%2F%2Ffonts.googleapis.com%2Fcss%3Ffamily%3DSource%2BSans%2BPro;" parent="1" vertex="1">
          <mxGeometry x="46" y="429.25" width="67" height="34.5" as="geometry" />
        </mxCell>
        <mxCell id="e4qKSJhobYz9jP92mjIB-38" style="edgeStyle=orthogonalEdgeStyle;curved=1;rounded=0;orthogonalLoop=1;jettySize=auto;html=1;fontFamily=Source Sans Pro;fontSource=https%3A%2F%2Ffonts.googleapis.com%2Fcss%3Ffamily%3DSource%2BSans%2BPro;strokeColor=#000000;entryX=0;entryY=0.5;entryDx=0;entryDy=0;endArrow=blockThin;endFill=1;" parent="1" source="e4qKSJhobYz9jP92mjIB-29" target="e4qKSJhobYz9jP92mjIB-37" edge="1">
          <mxGeometry relative="1" as="geometry" />
        </mxCell>
        <mxCell id="e4qKSJhobYz9jP92mjIB-64" value="ui end game" style="edgeLabel;html=1;align=center;verticalAlign=middle;resizable=0;points=[];fontFamily=Source Sans Pro;" parent="e4qKSJhobYz9jP92mjIB-38" vertex="1" connectable="0">
          <mxGeometry x="-0.0025" relative="1" as="geometry">
            <mxPoint as="offset" />
          </mxGeometry>
        </mxCell>
        <mxCell id="e4qKSJhobYz9jP92mjIB-42" style="edgeStyle=orthogonalEdgeStyle;curved=1;rounded=0;orthogonalLoop=1;jettySize=auto;html=1;fontFamily=Source Sans Pro;fontSource=https%3A%2F%2Ffonts.googleapis.com%2Fcss%3Ffamily%3DSource%2BSans%2BPro;strokeColor=#000000;entryX=0;entryY=0.5;entryDx=0;entryDy=0;strokeWidth=2;endArrow=blockThin;endFill=1;" parent="1" source="e4qKSJhobYz9jP92mjIB-29" target="e4qKSJhobYz9jP92mjIB-41" edge="1">
          <mxGeometry relative="1" as="geometry" />
        </mxCell>
        <mxCell id="e4qKSJhobYz9jP92mjIB-47" style="edgeStyle=orthogonalEdgeStyle;curved=1;rounded=0;orthogonalLoop=1;jettySize=auto;html=1;fontFamily=Source Sans Pro;fontSource=https%3A%2F%2Ffonts.googleapis.com%2Fcss%3Ffamily%3DSource%2BSans%2BPro;strokeColor=#000000;strokeWidth=1;exitX=1;exitY=0.5;exitDx=0;exitDy=0;entryX=1;entryY=0.5;entryDx=0;entryDy=0;endArrow=blockThin;endFill=1;" parent="1" source="e4qKSJhobYz9jP92mjIB-29" target="e4qKSJhobYz9jP92mjIB-46" edge="1">
          <mxGeometry relative="1" as="geometry">
            <mxPoint x="448" y="452" as="targetPoint" />
            <Array as="points">
              <mxPoint x="495" y="394" />
              <mxPoint x="495" y="487" />
            </Array>
          </mxGeometry>
        </mxCell>
        <mxCell id="e4qKSJhobYz9jP92mjIB-65" value="ui pause game" style="edgeLabel;html=1;align=center;verticalAlign=middle;resizable=0;points=[];fontFamily=Source Sans Pro;" parent="e4qKSJhobYz9jP92mjIB-47" vertex="1" connectable="0">
          <mxGeometry x="0.141" y="-1" relative="1" as="geometry">
            <mxPoint as="offset" />
          </mxGeometry>
        </mxCell>
        <mxCell id="e4qKSJhobYz9jP92mjIB-29" value="UI game in progress" style="whiteSpace=wrap;html=1;fontFamily=Source Sans Pro;rounded=0;fontSource=https%3A%2F%2Ffonts.googleapis.com%2Fcss%3Ffamily%3DSource%2BSans%2BPro;" parent="1" vertex="1">
          <mxGeometry x="381" y="377" width="67" height="34.5" as="geometry" />
        </mxCell>
        <mxCell id="e4qKSJhobYz9jP92mjIB-39" style="edgeStyle=orthogonalEdgeStyle;curved=1;rounded=0;orthogonalLoop=1;jettySize=auto;html=1;entryX=0;entryY=0.5;entryDx=0;entryDy=0;fontFamily=Source Sans Pro;fontSource=https%3A%2F%2Ffonts.googleapis.com%2Fcss%3Ffamily%3DSource%2BSans%2BPro;strokeColor=#000000;exitX=1;exitY=0.5;exitDx=0;exitDy=0;endArrow=blockThin;endFill=1;" parent="1" source="e4qKSJhobYz9jP92mjIB-37" target="sb421nTafkKdcoKEebiJ-20" edge="1">
          <mxGeometry relative="1" as="geometry">
            <Array as="points">
              <mxPoint x="751" y="490" />
              <mxPoint x="799" y="490" />
              <mxPoint x="799" y="634" />
              <mxPoint x="-887" y="634" />
              <mxPoint x="-887" y="359" />
            </Array>
          </mxGeometry>
        </mxCell>
        <mxCell id="e4qKSJhobYz9jP92mjIB-40" value="back to main menu" style="edgeLabel;html=1;align=center;verticalAlign=middle;resizable=0;points=[];fontFamily=Source Sans Pro;" parent="e4qKSJhobYz9jP92mjIB-39" vertex="1" connectable="0">
          <mxGeometry x="-0.1338" y="5" relative="1" as="geometry">
            <mxPoint as="offset" />
          </mxGeometry>
        </mxCell>
        <mxCell id="e4qKSJhobYz9jP92mjIB-37" value="game ended" style="whiteSpace=wrap;html=1;fontFamily=Source Sans Pro;rounded=0;fontSource=https%3A%2F%2Ffonts.googleapis.com%2Fcss%3Ffamily%3DSource%2BSans%2BPro;fillColor=#d5e8d4;strokeColor=#82b366;" parent="1" vertex="1">
          <mxGeometry x="684" y="474" width="67" height="34.5" as="geometry" />
        </mxCell>
        <mxCell id="fTrDx_JpAx9jHBDSCF6c-1" style="edgeStyle=orthogonalEdgeStyle;curved=1;rounded=0;orthogonalLoop=1;jettySize=auto;html=1;entryX=0;entryY=0.5;entryDx=0;entryDy=0;endArrow=blockThin;endFill=1;exitX=1;exitY=0.5;exitDx=0;exitDy=0;" edge="1" parent="1" source="e4qKSJhobYz9jP92mjIB-41" target="e4qKSJhobYz9jP92mjIB-54">
          <mxGeometry relative="1" as="geometry">
            <Array as="points">
              <mxPoint x="979" y="453" />
              <mxPoint x="1125" y="453" />
              <mxPoint x="1125" y="542" />
            </Array>
          </mxGeometry>
        </mxCell>
        <mxCell id="fTrDx_JpAx9jHBDSCF6c-2" style="edgeStyle=orthogonalEdgeStyle;curved=1;rounded=0;orthogonalLoop=1;jettySize=auto;html=1;endArrow=blockThin;endFill=1;" edge="1" parent="1" source="e4qKSJhobYz9jP92mjIB-41" target="e4qKSJhobYz9jP92mjIB-51">
          <mxGeometry relative="1" as="geometry" />
        </mxCell>
        <mxCell id="e4qKSJhobYz9jP92mjIB-41" value="GAME - game in progress" style="whiteSpace=wrap;html=1;fontFamily=Source Sans Pro;rounded=0;fontSource=https%3A%2F%2Ffonts.googleapis.com%2Fcss%3Ffamily%3DSource%2BSans%2BPro;" parent="1" vertex="1">
          <mxGeometry x="912" y="400" width="67" height="53.5" as="geometry" />
        </mxCell>
        <mxCell id="e4qKSJhobYz9jP92mjIB-63" style="edgeStyle=orthogonalEdgeStyle;curved=1;rounded=0;orthogonalLoop=1;jettySize=auto;html=1;fontFamily=Source Sans Pro;fontSource=https%3A%2F%2Ffonts.googleapis.com%2Fcss%3Ffamily%3DSource%2BSans%2BPro;strokeColor=#000000;strokeWidth=1;exitX=1;exitY=0.5;exitDx=0;exitDy=0;entryX=0;entryY=0.5;entryDx=0;entryDy=0;endArrow=blockThin;endFill=1;" parent="1" source="e4qKSJhobYz9jP92mjIB-43" target="e4qKSJhobYz9jP92mjIB-37" edge="1">
          <mxGeometry relative="1" as="geometry">
            <mxPoint x="648" y="545" as="targetPoint" />
            <Array as="points">
              <mxPoint x="2646" y="209" />
              <mxPoint x="2646" y="148" />
              <mxPoint x="617" y="112" />
              <mxPoint x="617" y="491" />
            </Array>
          </mxGeometry>
        </mxCell>
        <mxCell id="e4qKSJhobYz9jP92mjIB-97" value="game - game ended" style="edgeLabel;html=1;align=center;verticalAlign=middle;resizable=0;points=[];fontFamily=Source Sans Pro;" parent="e4qKSJhobYz9jP92mjIB-63" vertex="1" connectable="0">
          <mxGeometry x="-0.1034" y="3" relative="1" as="geometry">
            <mxPoint as="offset" />
          </mxGeometry>
        </mxCell>
        <mxCell id="e4qKSJhobYz9jP92mjIB-43" value="won/lost" style="whiteSpace=wrap;html=1;fontFamily=Source Sans Pro;rounded=0;fontSource=https%3A%2F%2Ffonts.googleapis.com%2Fcss%3Ffamily%3DSource%2BSans%2BPro;" parent="1" vertex="1">
          <mxGeometry x="2538" y="184" width="67" height="49.5" as="geometry" />
        </mxCell>
        <mxCell id="e4qKSJhobYz9jP92mjIB-45" value="state transictions from single player POV" style="text;html=1;strokeColor=none;fillColor=none;align=center;verticalAlign=middle;whiteSpace=wrap;rounded=0;fontFamily=Source Sans Pro;fontSource=https%3A%2F%2Ffonts.googleapis.com%2Fcss%3Ffamily%3DSource%2BSans%2BPro;" parent="1" vertex="1">
          <mxGeometry x="982" y="389" width="114" height="30" as="geometry" />
        </mxCell>
        <mxCell id="e4qKSJhobYz9jP92mjIB-48" style="edgeStyle=orthogonalEdgeStyle;curved=1;rounded=0;orthogonalLoop=1;jettySize=auto;html=1;entryX=0;entryY=0.5;entryDx=0;entryDy=0;fontFamily=Source Sans Pro;fontSource=https%3A%2F%2Ffonts.googleapis.com%2Fcss%3Ffamily%3DSource%2BSans%2BPro;strokeColor=#000000;strokeWidth=1;exitX=0;exitY=0.5;exitDx=0;exitDy=0;endArrow=blockThin;endFill=1;" parent="1" source="e4qKSJhobYz9jP92mjIB-46" target="e4qKSJhobYz9jP92mjIB-29" edge="1">
          <mxGeometry relative="1" as="geometry">
            <Array as="points">
              <mxPoint x="338" y="479" />
              <mxPoint x="338" y="394" />
            </Array>
          </mxGeometry>
        </mxCell>
        <mxCell id="e4qKSJhobYz9jP92mjIB-66" value="ui resume" style="edgeLabel;html=1;align=center;verticalAlign=middle;resizable=0;points=[];fontFamily=Source Sans Pro;" parent="e4qKSJhobYz9jP92mjIB-48" vertex="1" connectable="0">
          <mxGeometry x="-0.0685" y="-1" relative="1" as="geometry">
            <mxPoint as="offset" />
          </mxGeometry>
        </mxCell>
        <mxCell id="e4qKSJhobYz9jP92mjIB-49" style="edgeStyle=orthogonalEdgeStyle;curved=1;rounded=0;orthogonalLoop=1;jettySize=auto;html=1;fontFamily=Source Sans Pro;fontSource=https%3A%2F%2Ffonts.googleapis.com%2Fcss%3Ffamily%3DSource%2BSans%2BPro;strokeColor=#000000;strokeWidth=1;endArrow=blockThin;endFill=1;" parent="1" source="e4qKSJhobYz9jP92mjIB-46" target="e4qKSJhobYz9jP92mjIB-37" edge="1">
          <mxGeometry relative="1" as="geometry" />
        </mxCell>
        <mxCell id="e4qKSJhobYz9jP92mjIB-46" value="game paused" style="whiteSpace=wrap;html=1;fontFamily=Source Sans Pro;rounded=0;fontSource=https%3A%2F%2Ffonts.googleapis.com%2Fcss%3Ffamily%3DSource%2BSans%2BPro;" parent="1" vertex="1">
          <mxGeometry x="375" y="470" width="67" height="34.5" as="geometry" />
        </mxCell>
        <mxCell id="e4qKSJhobYz9jP92mjIB-62" style="edgeStyle=orthogonalEdgeStyle;curved=1;rounded=0;orthogonalLoop=1;jettySize=auto;html=1;entryX=0;entryY=0.5;entryDx=0;entryDy=0;fontFamily=Source Sans Pro;fontSource=https%3A%2F%2Ffonts.googleapis.com%2Fcss%3Ffamily%3DSource%2BSans%2BPro;strokeColor=#000000;strokeWidth=1;endArrow=blockThin;endFill=1;exitX=1;exitY=0.5;exitDx=0;exitDy=0;" parent="1" source="e4qKSJhobYz9jP92mjIB-51" target="e4qKSJhobYz9jP92mjIB-43" edge="1">
          <mxGeometry relative="1" as="geometry" />
        </mxCell>
        <mxCell id="fTrDx_JpAx9jHBDSCF6c-3" style="edgeStyle=orthogonalEdgeStyle;curved=1;rounded=0;orthogonalLoop=1;jettySize=auto;html=1;entryX=0;entryY=0.5;entryDx=0;entryDy=0;endArrow=blockThin;endFill=1;" edge="1" parent="1" source="e4qKSJhobYz9jP92mjIB-51" target="e4qKSJhobYz9jP92mjIB-54">
          <mxGeometry relative="1" as="geometry">
            <Array as="points">
              <mxPoint x="1221" y="436" />
              <mxPoint x="1221" y="542" />
            </Array>
          </mxGeometry>
        </mxCell>
        <mxCell id="e4qKSJhobYz9jP92mjIB-51" value="waiting for opponent move" style="whiteSpace=wrap;html=1;fontFamily=Source Sans Pro;rounded=0;fontSource=https%3A%2F%2Ffonts.googleapis.com%2Fcss%3Ffamily%3DSource%2BSans%2BPro;" parent="1" vertex="1">
          <mxGeometry x="1139" y="411.5" width="67" height="48" as="geometry" />
        </mxCell>
        <mxCell id="fTrDx_JpAx9jHBDSCF6c-5" style="edgeStyle=orthogonalEdgeStyle;curved=1;rounded=0;orthogonalLoop=1;jettySize=auto;html=1;endArrow=blockThin;endFill=1;" edge="1" parent="1" source="e4qKSJhobYz9jP92mjIB-52" target="e4qKSJhobYz9jP92mjIB-60">
          <mxGeometry relative="1" as="geometry" />
        </mxCell>
        <mxCell id="fTrDx_JpAx9jHBDSCF6c-8" value="place ring" style="edgeLabel;html=1;align=center;verticalAlign=middle;resizable=0;points=[];" vertex="1" connectable="0" parent="fTrDx_JpAx9jHBDSCF6c-5">
          <mxGeometry x="-0.2758" y="-1" relative="1" as="geometry">
            <mxPoint as="offset" />
          </mxGeometry>
        </mxCell>
        <mxCell id="e4qKSJhobYz9jP92mjIB-52" value="moving" style="whiteSpace=wrap;html=1;fontFamily=Source Sans Pro;rounded=0;fontSource=https%3A%2F%2Ffonts.googleapis.com%2Fcss%3Ffamily%3DSource%2BSans%2BPro;" parent="1" vertex="1">
          <mxGeometry x="1390" y="518" width="67" height="48" as="geometry" />
        </mxCell>
        <mxCell id="fTrDx_JpAx9jHBDSCF6c-29" style="edgeStyle=orthogonalEdgeStyle;curved=1;rounded=0;orthogonalLoop=1;jettySize=auto;html=1;endArrow=blockThin;endFill=1;endSize=5;startSize=5;" edge="1" parent="1" source="e4qKSJhobYz9jP92mjIB-53" target="e4qKSJhobYz9jP92mjIB-58">
          <mxGeometry relative="1" as="geometry" />
        </mxCell>
        <mxCell id="e4qKSJhobYz9jP92mjIB-53" value="scored current player - score handling" style="whiteSpace=wrap;html=1;fontFamily=Source Sans Pro;rounded=0;fontSource=https%3A%2F%2Ffonts.googleapis.com%2Fcss%3Ffamily%3DSource%2BSans%2BPro;" parent="1" vertex="1">
          <mxGeometry x="1985" y="574" width="133" height="48" as="geometry" />
        </mxCell>
        <mxCell id="fTrDx_JpAx9jHBDSCF6c-4" value="pick ring" style="edgeStyle=orthogonalEdgeStyle;curved=1;rounded=0;orthogonalLoop=1;jettySize=auto;html=1;endArrow=blockThin;endFill=1;" edge="1" parent="1" source="e4qKSJhobYz9jP92mjIB-54" target="e4qKSJhobYz9jP92mjIB-52">
          <mxGeometry relative="1" as="geometry" />
        </mxCell>
        <mxCell id="e4qKSJhobYz9jP92mjIB-54" value="can move" style="whiteSpace=wrap;html=1;fontFamily=Source Sans Pro;rounded=0;fontSource=https%3A%2F%2Ffonts.googleapis.com%2Fcss%3Ffamily%3DSource%2BSans%2BPro;" parent="1" vertex="1">
          <mxGeometry x="1264" y="518" width="67" height="48" as="geometry" />
        </mxCell>
        <mxCell id="e4qKSJhobYz9jP92mjIB-61" style="edgeStyle=orthogonalEdgeStyle;curved=1;rounded=0;orthogonalLoop=1;jettySize=auto;html=1;entryX=0;entryY=0.5;entryDx=0;entryDy=0;fontFamily=Source Sans Pro;fontSource=https%3A%2F%2Ffonts.googleapis.com%2Fcss%3Ffamily%3DSource%2BSans%2BPro;strokeColor=#000000;strokeWidth=1;endArrow=blockThin;endFill=1;" parent="1" source="e4qKSJhobYz9jP92mjIB-57" target="e4qKSJhobYz9jP92mjIB-43" edge="1">
          <mxGeometry relative="1" as="geometry" />
        </mxCell>
        <mxCell id="e4qKSJhobYz9jP92mjIB-57" value="move completed" style="whiteSpace=wrap;html=1;fontFamily=Source Sans Pro;rounded=0;fontSource=https%3A%2F%2Ffonts.googleapis.com%2Fcss%3Ffamily%3DSource%2BSans%2BPro;" parent="1" vertex="1">
          <mxGeometry x="2405" y="422" width="67" height="48" as="geometry" />
        </mxCell>
        <mxCell id="fTrDx_JpAx9jHBDSCF6c-30" style="edgeStyle=orthogonalEdgeStyle;shape=connector;curved=1;rounded=0;orthogonalLoop=1;jettySize=auto;html=1;labelBackgroundColor=default;strokeColor=default;fontFamily=Helvetica;fontSize=11;fontColor=default;endArrow=blockThin;endFill=1;startSize=5;endSize=5;" edge="1" parent="1" source="e4qKSJhobYz9jP92mjIB-58" target="e4qKSJhobYz9jP92mjIB-59">
          <mxGeometry relative="1" as="geometry" />
        </mxCell>
        <mxCell id="e4qKSJhobYz9jP92mjIB-58" value="ring picking (scoring)" style="whiteSpace=wrap;html=1;fontFamily=Source Sans Pro;rounded=0;fontSource=https%3A%2F%2Ffonts.googleapis.com%2Fcss%3Ffamily%3DSource%2BSans%2BPro;" parent="1" vertex="1">
          <mxGeometry x="2162" y="577" width="67" height="48" as="geometry" />
        </mxCell>
        <mxCell id="fTrDx_JpAx9jHBDSCF6c-20" style="edgeStyle=orthogonalEdgeStyle;curved=1;rounded=0;orthogonalLoop=1;jettySize=auto;html=1;entryX=0;entryY=0.5;entryDx=0;entryDy=0;endArrow=blockThin;endFill=1;" edge="1" parent="1" source="e4qKSJhobYz9jP92mjIB-59" target="e4qKSJhobYz9jP92mjIB-57">
          <mxGeometry relative="1" as="geometry" />
        </mxCell>
        <mxCell id="e4qKSJhobYz9jP92mjIB-59" value="ring placed (scoring)" style="whiteSpace=wrap;html=1;fontFamily=Source Sans Pro;rounded=0;fontSource=https%3A%2F%2Ffonts.googleapis.com%2Fcss%3Ffamily%3DSource%2BSans%2BPro;" parent="1" vertex="1">
          <mxGeometry x="2263" y="574" width="67" height="48" as="geometry" />
        </mxCell>
        <mxCell id="fTrDx_JpAx9jHBDSCF6c-6" style="edgeStyle=orthogonalEdgeStyle;curved=1;rounded=0;orthogonalLoop=1;jettySize=auto;html=1;entryX=0;entryY=0.5;entryDx=0;entryDy=0;exitX=1;exitY=0.5;exitDx=0;exitDy=0;" edge="1" parent="1" source="e4qKSJhobYz9jP92mjIB-60" target="e4qKSJhobYz9jP92mjIB-54">
          <mxGeometry relative="1" as="geometry">
            <Array as="points">
              <mxPoint x="1618" y="542" />
              <mxPoint x="1618" y="473" />
              <mxPoint x="1244" y="473" />
              <mxPoint x="1244" y="542" />
            </Array>
          </mxGeometry>
        </mxCell>
        <mxCell id="fTrDx_JpAx9jHBDSCF6c-7" value="same-place drop (doesn&#39;t count)" style="edgeLabel;html=1;align=center;verticalAlign=middle;resizable=0;points=[];" vertex="1" connectable="0" parent="fTrDx_JpAx9jHBDSCF6c-6">
          <mxGeometry x="-0.2394" y="-1" relative="1" as="geometry">
            <mxPoint as="offset" />
          </mxGeometry>
        </mxCell>
        <mxCell id="fTrDx_JpAx9jHBDSCF6c-21" style="edgeStyle=orthogonalEdgeStyle;curved=1;rounded=0;orthogonalLoop=1;jettySize=auto;html=1;endArrow=blockThin;endFill=1;" edge="1" parent="1" source="e4qKSJhobYz9jP92mjIB-60" target="fTrDx_JpAx9jHBDSCF6c-9">
          <mxGeometry relative="1" as="geometry" />
        </mxCell>
        <mxCell id="e4qKSJhobYz9jP92mjIB-60" value="ring dropped" style="whiteSpace=wrap;html=1;fontFamily=Source Sans Pro;rounded=0;fontSource=https%3A%2F%2Ffonts.googleapis.com%2Fcss%3Ffamily%3DSource%2BSans%2BPro;" parent="1" vertex="1">
          <mxGeometry x="1539" y="518" width="67" height="48" as="geometry" />
        </mxCell>
        <mxCell id="e4qKSJhobYz9jP92mjIB-98" value="connected to server" style="whiteSpace=wrap;html=1;fontFamily=Source Sans Pro;rounded=0;fontSource=https%3A%2F%2Ffonts.googleapis.com%2Fcss%3Ffamily%3DSource%2BSans%2BPro;" parent="1" vertex="1">
          <mxGeometry x="442" y="-34" width="67" height="34.5" as="geometry" />
        </mxCell>
        <mxCell id="e4qKSJhobYz9jP92mjIB-99" value="not connected to server" style="whiteSpace=wrap;html=1;fontFamily=Source Sans Pro;rounded=0;fontSource=https%3A%2F%2Ffonts.googleapis.com%2Fcss%3Ffamily%3DSource%2BSans%2BPro;" parent="1" vertex="1">
          <mxGeometry x="584" y="-42.25" width="67" height="51" as="geometry" />
        </mxCell>
        <mxCell id="e4qKSJhobYz9jP92mjIB-104" style="edgeStyle=orthogonalEdgeStyle;rounded=0;orthogonalLoop=1;jettySize=auto;html=1;entryX=0;entryY=0.5;entryDx=0;entryDy=0;fontFamily=Source Sans Pro;fontSource=https%3A%2F%2Ffonts.googleapis.com%2Fcss%3Ffamily%3DSource%2BSans%2BPro;strokeColor=#000000;strokeWidth=1;elbow=vertical;curved=1;startArrow=blockThin;startFill=1;endArrow=blockThin;endFill=1;" parent="1" source="e4qKSJhobYz9jP92mjIB-101" target="e4qKSJhobYz9jP92mjIB-103" edge="1">
          <mxGeometry relative="1" as="geometry" />
        </mxCell>
        <mxCell id="e4qKSJhobYz9jP92mjIB-101" value="server pooling" style="rhombus;whiteSpace=wrap;html=1;fontFamily=Source Sans Pro;fontSource=https%3A%2F%2Ffonts.googleapis.com%2Fcss%3Ffamily%3DSource%2BSans%2BPro;" parent="1" vertex="1">
          <mxGeometry x="515" y="-220" width="80" height="80" as="geometry" />
        </mxCell>
        <mxCell id="e4qKSJhobYz9jP92mjIB-103" value="server" style="shape=hexagon;perimeter=hexagonPerimeter2;whiteSpace=wrap;html=1;fixedSize=1;fontFamily=Source Sans Pro;fontSource=https%3A%2F%2Ffonts.googleapis.com%2Fcss%3Ffamily%3DSource%2BSans%2BPro;" parent="1" vertex="1">
          <mxGeometry x="777" y="-420" width="120" height="80" as="geometry" />
        </mxCell>
        <mxCell id="fTrDx_JpAx9jHBDSCF6c-12" style="edgeStyle=orthogonalEdgeStyle;curved=1;rounded=0;orthogonalLoop=1;jettySize=auto;html=1;endArrow=blockThin;endFill=1;" edge="1" parent="1" source="fTrDx_JpAx9jHBDSCF6c-9" target="fTrDx_JpAx9jHBDSCF6c-10">
          <mxGeometry relative="1" as="geometry" />
        </mxCell>
        <mxCell id="fTrDx_JpAx9jHBDSCF6c-9" value="checking markers actions" style="whiteSpace=wrap;html=1;fontFamily=Source Sans Pro;rounded=0;fontSource=https%3A%2F%2Ffonts.googleapis.com%2Fcss%3Ffamily%3DSource%2BSans%2BPro;" vertex="1" parent="1">
          <mxGeometry x="1658" y="522" width="67" height="48" as="geometry" />
        </mxCell>
        <mxCell id="fTrDx_JpAx9jHBDSCF6c-15" style="edgeStyle=orthogonalEdgeStyle;curved=1;rounded=0;orthogonalLoop=1;jettySize=auto;html=1;entryX=0;entryY=0.5;entryDx=0;entryDy=0;endArrow=blockThin;endFill=1;" edge="1" parent="1" source="fTrDx_JpAx9jHBDSCF6c-10" target="fTrDx_JpAx9jHBDSCF6c-13">
          <mxGeometry relative="1" as="geometry" />
        </mxCell>
        <mxCell id="fTrDx_JpAx9jHBDSCF6c-22" style="edgeStyle=orthogonalEdgeStyle;curved=1;rounded=0;orthogonalLoop=1;jettySize=auto;html=1;endArrow=blockThin;endFill=1;" edge="1" parent="1" source="fTrDx_JpAx9jHBDSCF6c-10" target="fTrDx_JpAx9jHBDSCF6c-17">
          <mxGeometry relative="1" as="geometry" />
        </mxCell>
        <mxCell id="fTrDx_JpAx9jHBDSCF6c-25" style="edgeStyle=orthogonalEdgeStyle;curved=1;rounded=0;orthogonalLoop=1;jettySize=auto;html=1;entryX=0;entryY=0.5;entryDx=0;entryDy=0;endArrow=blockThin;endFill=1;" edge="1" parent="1" source="fTrDx_JpAx9jHBDSCF6c-10" target="fTrDx_JpAx9jHBDSCF6c-24">
          <mxGeometry relative="1" as="geometry" />
        </mxCell>
        <mxCell id="fTrDx_JpAx9jHBDSCF6c-28" style="edgeStyle=orthogonalEdgeStyle;curved=1;rounded=0;orthogonalLoop=1;jettySize=auto;html=1;entryX=0;entryY=0.5;entryDx=0;entryDy=0;endArrow=blockThin;endFill=1;" edge="1" parent="1" source="fTrDx_JpAx9jHBDSCF6c-10" target="e4qKSJhobYz9jP92mjIB-53">
          <mxGeometry relative="1" as="geometry" />
        </mxCell>
        <mxCell id="fTrDx_JpAx9jHBDSCF6c-10" value="markers actions taken" style="whiteSpace=wrap;html=1;fontFamily=Source Sans Pro;rounded=0;fontSource=https%3A%2F%2Ffonts.googleapis.com%2Fcss%3Ffamily%3DSource%2BSans%2BPro;" vertex="1" parent="1">
          <mxGeometry x="1778" y="522" width="67" height="48" as="geometry" />
        </mxCell>
        <mxCell id="fTrDx_JpAx9jHBDSCF6c-16" style="edgeStyle=orthogonalEdgeStyle;curved=1;rounded=0;orthogonalLoop=1;jettySize=auto;html=1;endArrow=blockThin;endFill=1;" edge="1" parent="1" source="fTrDx_JpAx9jHBDSCF6c-13" target="e4qKSJhobYz9jP92mjIB-57">
          <mxGeometry relative="1" as="geometry" />
        </mxCell>
        <mxCell id="fTrDx_JpAx9jHBDSCF6c-13" value="not scored" style="whiteSpace=wrap;html=1;fontFamily=Source Sans Pro;rounded=0;fontSource=https%3A%2F%2Ffonts.googleapis.com%2Fcss%3Ffamily%3DSource%2BSans%2BPro;" vertex="1" parent="1">
          <mxGeometry x="1933" y="431" width="67" height="48" as="geometry" />
        </mxCell>
        <mxCell id="fTrDx_JpAx9jHBDSCF6c-23" style="edgeStyle=orthogonalEdgeStyle;curved=1;rounded=0;orthogonalLoop=1;jettySize=auto;html=1;entryX=0;entryY=0.5;entryDx=0;entryDy=0;" edge="1" parent="1" source="fTrDx_JpAx9jHBDSCF6c-17" target="e4qKSJhobYz9jP92mjIB-57">
          <mxGeometry relative="1" as="geometry" />
        </mxCell>
        <mxCell id="fTrDx_JpAx9jHBDSCF6c-17" value="scored only for other player" style="whiteSpace=wrap;html=1;fontFamily=Source Sans Pro;rounded=0;fontSource=https%3A%2F%2Ffonts.googleapis.com%2Fcss%3Ffamily%3DSource%2BSans%2BPro;" vertex="1" parent="1">
          <mxGeometry x="2067" y="493" width="67" height="48" as="geometry" />
        </mxCell>
        <mxCell id="fTrDx_JpAx9jHBDSCF6c-26" style="edgeStyle=orthogonalEdgeStyle;curved=1;rounded=0;orthogonalLoop=1;jettySize=auto;html=1;entryX=0;entryY=0.5;entryDx=0;entryDy=0;endArrow=blockThin;endFill=1;" edge="1" parent="1" source="fTrDx_JpAx9jHBDSCF6c-24" target="e4qKSJhobYz9jP92mjIB-53">
          <mxGeometry relative="1" as="geometry" />
        </mxCell>
        <mxCell id="fTrDx_JpAx9jHBDSCF6c-24" value="scored for both" style="whiteSpace=wrap;html=1;fontFamily=Source Sans Pro;rounded=0;fontSource=https%3A%2F%2Ffonts.googleapis.com%2Fcss%3Ffamily%3DSource%2BSans%2BPro;" vertex="1" parent="1">
          <mxGeometry x="1854" y="610" width="67" height="48" as="geometry" />
        </mxCell>
        <mxCell id="fTrDx_JpAx9jHBDSCF6c-31" value="allowed interactions" style="text;html=1;strokeColor=none;fillColor=none;align=center;verticalAlign=middle;whiteSpace=wrap;rounded=0;fontFamily=Source Sans Pro;fontSource=https%3A%2F%2Ffonts.googleapis.com%2Fcss%3Ffamily%3DSource%2BSans%2BPro;fontSize=12;" vertex="1" parent="1">
          <mxGeometry x="151" y="1024" width="145" height="30" as="geometry" />
        </mxCell>
      </root>
    </mxGraphModel>
  </diagram>
</mxfile>
